<svg width="38" height="37" viewBox="0 0 38 37" fill="none" xmlns="http://www.w3.org/2000/svg">
<path fill-rule="evenodd" clip-rule="evenodd" d="M38 18.5C38 28.7173 29.4934 37 19 37C8.50659 37 0 28.7173 0 18.5C0 8.28273 8.50659 0 19 0C29.4934 0 38 8.28273 38 18.5ZM19.6809 13.6575C17.8328 14.4059 14.1394 15.955 8.6005 18.3047C7.70107 18.653 7.22991 18.9937 7.18702 19.3268C7.11453 19.8898 7.83863 20.1115 8.82466 20.4134C8.95879 20.4545 9.09776 20.497 9.24023 20.5421C10.2103 20.8491 11.5153 21.2084 12.1937 21.2226C12.8091 21.2356 13.4959 20.9886 14.2542 20.4816C19.4293 17.0801 22.1008 15.3609 22.2685 15.3238C22.3868 15.2977 22.5508 15.2648 22.6619 15.3609C22.773 15.4571 22.7621 15.6392 22.7503 15.688C22.6786 15.9858 19.8362 18.5587 18.3653 19.8902C17.9067 20.3053 17.5814 20.5998 17.515 20.667C17.366 20.8177 17.2142 20.9601 17.0683 21.0971C16.167 21.943 15.4912 22.5774 17.1057 23.6134C17.8816 24.1112 18.5025 24.5229 19.1219 24.9336C19.7983 25.3821 20.473 25.8295 21.3459 26.3867C21.5683 26.5286 21.7807 26.676 21.9876 26.8196C22.7748 27.3661 23.482 27.857 24.3558 27.7787C24.8635 27.7332 25.3879 27.2684 25.6542 25.882C26.2837 22.6057 27.5209 15.5068 27.8068 12.5815C27.8319 12.3252 27.8004 11.9972 27.7751 11.8532C27.7498 11.7092 27.6969 11.5041 27.5047 11.3522C27.277 11.1724 26.9256 11.1344 26.7684 11.1371C26.0538 11.1494 24.9574 11.5206 19.6809 13.6575Z" fill="#2C4243"/>
</svg>
