<svg width="34" height="34" viewBox="0 0 34 34" fill="none" xmlns="http://www.w3.org/2000/svg">
<path id="Vector" d="M17 34C14.6767 34 12.4808 33.5535 10.4125 32.6604C8.34417 31.7673 6.53763 30.549 4.9929 29.0054C3.4493 27.4618 2.23097 25.6558 1.3379 23.5875C0.444835 21.5192 -0.00113118 19.3233 2.15463e-06 17C2.15463e-06 14.6483 0.446536 12.4451 1.3396 10.3904C2.23267 8.33567 3.451 6.53707 4.9946 4.9946C6.5382 3.44987 8.3436 2.23153 10.4108 1.3396C12.478 0.447667 14.6744 0.00113333 17 0C19.3517 0 21.5549 0.446534 23.6096 1.3396C25.6643 2.23267 27.4629 3.451 29.0054 4.9946C30.5501 6.5382 31.7685 8.33737 32.6604 10.3921C33.5523 12.4468 33.9989 14.6495 34 17C34 19.3233 33.5535 21.5192 32.6604 23.5875C31.7673 25.6558 30.549 27.4624 29.0054 29.0071C27.4618 30.5507 25.6626 31.769 23.6079 32.6621C21.5532 33.5552 19.3505 34.0011 17 34ZM17 30.515C17.7367 29.495 18.3742 28.4325 18.9125 27.3275C19.4508 26.2225 19.89 25.0467 20.23 23.8H13.77C14.11 25.0467 14.5492 26.2225 15.0875 27.3275C15.6258 28.4325 16.2633 29.495 17 30.515ZM12.58 29.835C12.07 28.9 11.6235 27.9293 11.2404 26.9229C10.8573 25.9165 10.5389 24.8755 10.285 23.8H5.27C6.09167 25.2167 7.11903 26.4492 8.3521 27.4975C9.58517 28.5458 10.9945 29.325 12.58 29.835ZM21.42 29.835C23.0067 29.325 24.4165 28.5458 25.6496 27.4975C26.8827 26.4492 27.9095 25.2167 28.73 23.8H23.715C23.46 24.8767 23.1415 25.9182 22.7596 26.9246C22.3777 27.931 21.9311 28.9011 21.42 29.835ZM3.825 20.4H9.605C9.52 19.8333 9.45597 19.2735 9.4129 18.7204C9.36983 18.1673 9.34887 17.5939 9.35 17C9.35 16.405 9.37153 15.8315 9.4146 15.2796C9.45767 14.7277 9.52113 14.1678 9.605 13.6H3.825C3.68333 14.1667 3.5768 14.7265 3.5054 15.2796C3.434 15.8327 3.39887 16.4061 3.4 17C3.4 17.595 3.4357 18.1685 3.5071 18.7204C3.5785 19.2723 3.68447 19.8322 3.825 20.4ZM13.005 20.4H20.995C21.08 19.8333 21.144 19.2735 21.1871 18.7204C21.2302 18.1673 21.2511 17.5939 21.25 17C21.25 16.405 21.2285 15.8315 21.1854 15.2796C21.1423 14.7277 21.0789 14.1678 20.995 13.6H13.005C12.92 14.1667 12.856 14.7265 12.8129 15.2796C12.7698 15.8327 12.7489 16.4061 12.75 17C12.75 17.595 12.7715 18.1685 12.8146 18.7204C12.8577 19.2723 12.9211 19.8322 13.005 20.4ZM24.395 20.4H30.175C30.3167 19.8333 30.4232 19.2735 30.4946 18.7204C30.566 18.1673 30.6011 17.5939 30.6 17C30.6 16.405 30.5643 15.8315 30.4929 15.2796C30.4215 14.7277 30.3155 14.1678 30.175 13.6H24.395C24.48 14.1667 24.544 14.7265 24.5871 15.2796C24.6302 15.8327 24.6511 16.4061 24.65 17C24.65 17.595 24.6285 18.1685 24.5854 18.7204C24.5423 19.2723 24.4789 19.8322 24.395 20.4ZM23.715 10.2H28.73C27.9083 8.78333 26.8815 7.55083 25.6496 6.5025C24.4177 5.45417 23.0078 4.675 21.42 4.165C21.93 5.1 22.3765 6.0707 22.7596 7.0771C23.1427 8.0835 23.4611 9.12447 23.715 10.2ZM13.77 10.2H20.23C19.89 8.95333 19.4508 7.7775 18.9125 6.6725C18.3742 5.5675 17.7367 4.505 17 3.485C16.2633 4.505 15.6258 5.5675 15.0875 6.6725C14.5492 7.7775 14.11 8.95333 13.77 10.2ZM5.27 10.2H10.285C10.54 9.12333 10.859 8.0818 11.2421 7.0754C11.6252 6.069 12.0711 5.09887 12.58 4.165C10.9933 4.675 9.58347 5.45417 8.3504 6.5025C7.11734 7.55083 6.09053 8.78333 5.27 10.2Z" fill="#2C4243"/>
</svg>
