<svg width="155" height="158" viewBox="0 0 155 158" fill="none" xmlns="http://www.w3.org/2000/svg">
<path id="Vector" d="M58.0027 21.9123C55.1018 29.444 52.9275 37.2553 51.5116 45.2319H103.479C102.062 37.2554 99.8881 29.4441 96.9876 21.9123C94.0715 14.5446 90.7097 8.90566 87.222 5.19664C83.7536 1.49768 80.4694 0 77.4951 0C74.5209 0 71.2366 1.49768 67.7683 5.19664C64.2805 8.91571 60.9285 14.5446 58.0027 21.9123ZM57.0532 2.82448C54.0112 7.10643 51.3372 12.283 49.0315 18.0827C45.9313 25.9229 43.4124 35.11 41.6491 45.2319H7.77953C12.6187 34.9363 19.5172 25.8288 28.0152 18.5164C36.5133 11.204 46.4061 5.85457 57.0532 2.82448ZM105.939 18.0827C103.87 12.6806 101.18 7.55748 97.9273 2.82448C108.574 5.85457 118.477 11.204 126.975 18.5164C135.473 25.8288 142.371 34.9363 147.211 45.2319H113.331C111.568 35.11 109.069 25.9128 105.949 18.0928L105.939 18.0827ZM151.144 55.2834H114.794C115.744 63.2744 116.248 71.7076 116.248 80.4122C116.248 89.1169 115.744 97.5501 114.794 105.541H151.144C153.708 97.4306 155.01 88.9479 155 80.4122C155.01 71.8766 153.708 63.3939 151.144 55.2834ZM113.331 115.593H147.211C142.373 125.887 135.476 134.994 126.979 142.306C118.483 149.619 108.582 154.969 97.937 158C101.19 153.267 103.88 148.144 105.949 142.742C109.059 134.902 111.568 125.714 113.331 115.593ZM73.2517 120.015C73.9105 118.578 74.5015 117.1 75.015 115.593H103.479C102.062 123.569 99.8882 131.38 96.9876 138.912C96.3865 140.44 95.7403 141.949 95.05 143.435C94.391 142.218 93.5726 141.102 92.6182 140.118L73.242 120.015H73.2517ZM77.2238 105.541H105.029C106.017 97.6406 106.559 89.2073 106.559 80.4122C106.559 71.6172 106.017 63.1739 105.029 55.2834H49.9615L49.6031 58.2989C58.5914 61.9009 66.1771 68.4895 71.1757 77.0361C76.1744 85.5827 78.2948 95.606 77.2238 105.541ZM40.1959 55.2834L40.1378 55.7458C38.0713 55.4382 35.9863 55.2837 33.8987 55.2834H40.1959ZM3.84616 55.2834H33.8987C27.5234 55.278 21.2249 56.7266 15.4491 59.5266C9.67318 62.3266 4.56112 66.4095 0.474704 71.4865C1.06568 65.8978 2.21856 60.47 3.86554 55.2834H3.84616ZM33.8987 135.696C41.5135 135.696 48.5471 133.082 54.2049 128.69L78.9096 154.321C79.3593 154.788 79.8934 155.159 80.4812 155.412C81.0691 155.665 81.6992 155.796 82.3357 155.796C82.9722 155.797 83.6026 155.667 84.1908 155.415C84.779 155.163 85.3135 154.793 85.7639 154.326C86.2143 153.86 86.5717 153.305 86.8157 152.696C87.0596 152.086 87.1855 151.432 87.1859 150.771C87.1864 150.111 87.0614 149.457 86.8183 148.847C86.5751 148.237 86.2185 147.682 85.7688 147.215L61.0641 121.583C65.637 115.239 68.0119 107.478 67.8042 99.5586C67.5965 91.639 64.8185 84.024 59.9199 77.9466C55.0212 71.8692 48.2889 67.6852 40.8128 66.072C33.3368 64.4588 25.5547 65.5109 18.7268 69.058C11.8989 72.6051 6.42482 78.4395 3.19095 85.6164C-0.0429121 92.7933 -0.847237 100.893 0.908216 108.603C2.66367 116.313 6.87612 123.183 12.8635 128.1C18.8509 133.017 26.2626 135.693 33.8987 135.696ZM33.8987 125.644C27.475 125.644 21.3145 122.997 16.7723 118.284C12.2302 113.571 9.6784 107.18 9.6784 100.515C9.6784 93.8507 12.2302 87.4591 16.7723 82.7465C21.3145 78.034 27.475 75.3865 33.8987 75.3865C40.3223 75.3865 46.4828 78.034 51.025 82.7465C55.5671 87.4591 58.1189 93.8507 58.1189 100.515C58.1189 107.18 55.5671 113.571 51.025 118.284C46.4828 122.997 40.3223 125.644 33.8987 125.644Z" fill="#D4AF37"/>
</svg>
