<svg width="150" height="150" viewBox="0 0 150 150" fill="none" xmlns="http://www.w3.org/2000/svg">
<g id="game-icons:pencil-brush">
<path id="Vector" d="M15.9486 8.72836C15.831 8.72656 15.7134 8.72773 15.5959 8.73187C14.2224 8.77787 13.2773 9.23988 12.6331 9.88412C11.7741 10.7431 11.2386 12.1368 11.5819 14.368C11.9259 16.5993 13.2469 19.5694 16.0561 22.8468C35.947 46.0529 55.0019 68.421 69.8754 84.9474C73.471 88.9423 76.8167 92.5877 79.8729 95.8265C83.4164 86.4802 90.0009 79.964 98.3013 76.867C95.1299 73.879 91.5817 70.623 87.6967 67.1264C71.1709 52.253 48.8021 33.1974 25.5964 13.3066C22.3192 10.497 19.3488 9.17631 17.1176 8.83236C16.7307 8.7713 16.3402 8.73655 15.9486 8.72836ZM125.844 9.03392C125.754 9.03305 125.668 9.0351 125.587 9.04066C124.939 9.08373 124.609 9.23226 124.247 9.59467L116.167 17.6747L132.326 33.8331L140.405 25.7531C140.768 25.391 140.917 25.0611 140.959 24.413C141.003 23.7656 140.851 22.821 140.43 21.7283C139.59 19.5427 137.713 16.8453 135.434 14.5666C133.155 12.2879 130.458 10.4109 128.272 9.57006C127.316 9.20238 126.474 9.03978 125.844 9.03392H125.844ZM112.438 21.4031L109.538 24.3037L112.438 27.2036L116.167 30.9327L119.067 33.8326L122.796 37.5618L125.696 40.4621L128.597 37.5618L112.438 21.4031ZM105.809 28.0324L80.2069 53.6349L83.2734 56.3689L108.71 30.9327L105.809 28.0324ZM112.438 34.6619L87.2159 59.8836L90.283 62.6173L115.339 37.5618L112.438 34.6617V34.6619ZM119.068 41.2901L94.2255 66.1324L97.2926 68.8663L121.968 44.1908L119.068 41.2904H119.068V41.2901ZM56.4143 77.4278L21.2883 112.554L24.1881 115.454L59.1516 80.4908L56.4143 77.4278ZM102.604 80.9865C93.6797 83.2209 87.0061 89.5365 83.9686 100.093C85.6245 101.788 87.1784 103.341 88.5917 104.695C90.8124 106.823 92.7214 108.506 94.2196 109.663C94.7402 104.616 97.1625 99.9767 100.561 96.5698C103.667 93.4561 107.737 91.2946 112.023 90.9764C110.89 89.5596 109.346 87.827 107.445 85.8427C106.027 84.3641 104.393 82.7305 102.604 80.9865ZM62.6713 84.4283L27.9167 119.182L30.8171 122.083L65.4094 87.4912L62.6713 84.4283ZM68.9294 91.4285L34.5463 125.812L37.4455 128.712L71.6672 94.4914L68.9294 91.4285ZM112.961 96.2059C109.915 96.246 106.829 97.7528 104.294 100.294C100.914 103.682 98.823 108.747 99.5282 113.683C101.091 124.623 106.486 132.964 114.018 137.483C120.677 141.478 129.092 142.566 138.523 139.529C131.427 138.354 124.908 130.533 124.403 124.69C127.517 128.444 131.417 131.882 135.661 133.992C132.766 127.377 132.965 120.676 132.412 115.147C132.016 111.186 131.272 107.829 129.079 104.846C126.886 101.864 123.096 99.0453 115.972 96.6705C115.001 96.3475 113.983 96.1905 112.961 96.2059ZM18.5221 117.246L18.5212 117.246L18.5218 117.247L18.5221 117.246ZM18.5218 117.247L14.9719 126.124L23.8758 135.029L32.7542 131.478L30.8177 129.541L27.0876 125.812L24.1878 122.912L20.4583 119.183L18.5218 117.247ZM12.8396 131.451L9.03339 140.966L18.5484 137.16L12.8396 131.451Z" fill="#D4AF37"/>
</g>
</svg>
