<svg width="39" height="38" viewBox="0 0 39 38" fill="none" xmlns="http://www.w3.org/2000/svg">
<g clip-path="url(#clip0_5_163)">
<path d="M19.5 3.42148C24.7102 3.42148 25.3272 3.44375 27.3762 3.53281C29.2805 3.61445 30.3088 3.92617 30.9943 4.18594C31.9008 4.52734 32.5559 4.94297 33.2338 5.60352C33.9193 6.27148 34.3383 6.90234 34.6887 7.78555C34.9553 8.45352 35.2752 9.46289 35.359 11.3109C35.4504 13.3148 35.4732 13.916 35.4732 18.9852C35.4732 24.0617 35.4504 24.6629 35.359 26.6594C35.2752 28.5148 34.9553 29.5168 34.6887 30.1848C34.3383 31.068 33.9117 31.7063 33.2338 32.3668C32.5482 33.0348 31.9008 33.443 30.9943 33.7844C30.3088 34.0441 29.2729 34.3559 27.3762 34.4375C25.3195 34.5266 24.7025 34.5488 19.5 34.5488C14.2898 34.5488 13.6729 34.5266 11.6238 34.4375C9.71953 34.3559 8.69121 34.0441 8.00566 33.7844C7.09922 33.443 6.44414 33.0273 5.76621 32.3668C5.08066 31.6988 4.66172 31.068 4.31133 30.1848C4.04473 29.5168 3.7248 28.5074 3.64102 26.6594C3.54961 24.6555 3.52676 24.0543 3.52676 18.9852C3.52676 13.9086 3.54961 13.3074 3.64102 11.3109C3.7248 9.45547 4.04473 8.45352 4.31133 7.78555C4.66172 6.90234 5.08828 6.26406 5.76621 5.60352C6.45176 4.93555 7.09922 4.52734 8.00566 4.18594C8.69121 3.92617 9.72715 3.61445 11.6238 3.53281C13.6729 3.44375 14.2898 3.42148 19.5 3.42148ZM19.5 0C14.2061 0 13.5434 0.0222656 11.4639 0.111328C9.39199 0.200391 7.96758 0.526953 6.73359 0.994531C5.44629 1.48438 4.35703 2.13008 3.27539 3.19141C2.18613 4.24531 1.52344 5.30664 1.0207 6.55352C0.54082 7.76328 0.205664 9.14375 0.114258 11.1625C0.0228516 13.1961 0 13.8418 0 19C0 24.1582 0.0228516 24.8039 0.114258 26.8301C0.205664 28.8488 0.54082 30.2367 1.0207 31.4391C1.52344 32.6934 2.18613 33.7547 3.27539 34.8086C4.35703 35.8625 5.44629 36.5156 6.72598 36.998C7.96758 37.4656 9.38438 37.7922 11.4563 37.8812C13.5357 37.9703 14.1984 37.9926 19.4924 37.9926C24.7863 37.9926 25.449 37.9703 27.5285 37.8812C29.6004 37.7922 31.0248 37.4656 32.2588 36.998C33.5385 36.5156 34.6277 35.8625 35.7094 34.8086C36.791 33.7547 37.4613 32.6934 37.9564 31.4465C38.4363 30.2367 38.7715 28.8563 38.8629 26.8375C38.9543 24.8113 38.9771 24.1656 38.9771 19.0074C38.9771 13.8492 38.9543 13.2035 38.8629 11.1773C38.7715 9.15859 38.4363 7.7707 37.9564 6.56836C37.4766 5.30664 36.8139 4.24531 35.7246 3.19141C34.643 2.1375 33.5537 1.48438 32.274 1.00195C31.0324 0.534375 29.6156 0.207813 27.5438 0.11875C25.4566 0.0222656 24.7939 0 19.5 0Z" fill="#2C4243"/>
<path d="M19.5 9.24023C13.9699 9.24023 9.4834 13.6117 9.4834 19C9.4834 24.3883 13.9699 28.7598 19.5 28.7598C25.0301 28.7598 29.5166 24.3883 29.5166 19C29.5166 13.6117 25.0301 9.24023 19.5 9.24023ZM19.5 25.3309C15.9123 25.3309 13.0025 22.4957 13.0025 19C13.0025 15.5043 15.9123 12.6691 19.5 12.6691C23.0877 12.6691 25.9975 15.5043 25.9975 19C25.9975 22.4957 23.0877 25.3309 19.5 25.3309Z" fill="#2C4243"/>
<path d="M32.2512 8.85423C32.2512 10.116 31.2 11.1328 29.9127 11.1328C28.6178 11.1328 27.5742 10.1085 27.5742 8.85423C27.5742 7.59251 28.6254 6.57571 29.9127 6.57571C31.2 6.57571 32.2512 7.59993 32.2512 8.85423Z" fill="#2C4243"/>
</g>
<defs>
<clipPath id="clip0_5_163">
<rect width="39" height="38" fill="white"/>
</clipPath>
</defs>
</svg>
