<svg width="77" height="43" viewBox="0 0 77 43" fill="none" xmlns="http://www.w3.org/2000/svg">
<path d="M18.5815 7.54492L9.56445 42H0.662598L13.7705 0.0546875H19.3306L18.5815 7.54492ZM25.6973 42L16.6226 7.54492L15.7871 0.0546875H21.4336L34.6567 42H25.6973ZM26.0142 26.3569V33.3574H7.08691V26.3569H26.0142ZM61.9385 35.0283V42H44.5093V35.0283H61.9385ZM47.1021 0.0546875V42H38.6611V0.0546875H47.1021Z" fill="#2C4243"/>
<path d="M67.1528 37.8804C67.1528 36.6128 67.5754 35.5565 68.4204 34.7114C69.2655 33.8472 70.4082 33.415 71.8486 33.415C73.2891 33.415 74.4318 33.8472 75.2769 34.7114C76.1219 35.5565 76.5444 36.6128 76.5444 37.8804C76.5444 39.1479 76.1219 40.2043 75.2769 41.0493C74.4318 41.8944 73.2891 42.3169 71.8486 42.3169C70.4082 42.3169 69.2655 41.8944 68.4204 41.0493C67.5754 40.2043 67.1528 39.1479 67.1528 37.8804Z" fill="#D4AF37"/>
</svg>
